<?xml version="1.0" encoding="UTF-8"?>
<svg id="_鍥惧眰_1" data-name="鍥惧眰 1" xmlns="http://www.w3.org/2000/svg" viewBox="0 0 1050 660">
  <title>ps5-dualsense-controller</title>
  <defs>
    <style>
      .cls-1 {
        stroke-width: 2px;
      }

      .cls-1, .cls-2, .cls-3 {
        fill: none;
        stroke: #1b1b1b;
        stroke-miterlimit: 10;
      }

      .cls-2 {
        stroke-width: 5px;
      }

      .cls-3 {
        stroke-width: 3px;
      }

      .cls-4 {
        fill: #1b1b1b;
      }

      .cls-5 {
        fill: #cacaca;
      }

      .cls-6 {
        opacity: .08;
      }
    </style>
  </defs>
  <g id="DualSense_Controller" data-name="DualSense Controller">
    <g id="body">
      <path id="vector" class="cls-3" d="M782.365815928575103,517.709090003787423c14.008934742658312,1.482555498507281,24.04214318864797,9.952567180667756,32.268648281378773,20.783694759093123l51.256940554401808,67.486984740096887c10.09648007128817,13.293475772527017,22.689443591991221,22.368453608652999,38.336635908110111,27.852233886334943l34.303726387834104,9.967618505525024c4.773665057946346,1.387149519974628,9.626956859423444.062390169168793,14.153504437435913-1.804459639823108,12.452213999527885-5.135172172907915,24.025071787858906-10.945226331379672,34.670343673271418-19.439514343956034,28.009512855558569-22.350246360841993,42.625497059780173-52.125893906038982,51.555988519245147-86.785453604337818,7.011689887047396-27.212552579869225,9.355485772775864-54.513713765760258,9.354769490228136-82.724994578948099-.000596902127654-28.826685789234034-2.717695377103155-56.420376756637779-9.197664850813453-84.44570087883767-6.569266031674488-28.411803302422413-14.536238080265321-55.691601317545974-24.309435960414703-83.115357972036691l-23.499439776205691-59.906943330990543c-12.346442942896829-31.474505147712989-26.320399221003754-55.833367835945864-41.48636904360319-85.911255694823922-3.383002486105397-6.70924943708269-6.965954058892748-12.011532007826645-13.858382901275036-14.887306108912526-1.991862392575058-4.735826537562389-10.312810526891553-19.344504647455324-11.971004631346659-22.703134960515854-9.515336161963205-19.274435297126729-20.162876275453527-37.328499464238121-34.112717707690535-53.622044149578869-22.713558437861138-26.529659405267012-58.173342922071242-30.737779617618799-85.430281577881033-7.563837365762083-8.475055137760137,7.367623517966422-14.437987990417241,16.857726604209347-15.499160589015446,28.399665137216289l-3.174998236756437,34.534986585485058c-.417362221129224,4.539716178152958-4.455974941793102,7.710322343610642-8.98767471746396,7.213420597775439-32.995218938773178-3.617932057843973-68.645043690039529-7.908543088064107-101.321336116818202-8.81968874559243l-103.873504770121144-2.896166218635699-92.146407472567262.110457303393559c-57.982594942940523.069673068293923-115.196678399385746,2.811684588786193-172.920755031801491,7.025084495795454l-36.684709275972637,3.578331103326491-3.79790915349804-39.771669357310202c-1.630736606685787-17.077912921082316-10.440952287875916-30.988735776087196-25.43053753240838-38.90427607154561-30.433741302688759-16.070930735424554-64.771849252944776-1.626999664483264-85.369747797413766,25.267290223633609-10.89119556109199,14.220346067810169-19.460919375944286,29.240111696220083-27.553509476833824,45.342116134577736-1.80846421453225,3.598480457570986-8.678419691892486,20.210530597969409-11.845880820506864,22.906174327367808-5.070444794712785,4.315360494756533-9.976472898970314,7.056400962032058-13.033417599061067,13.335716587447678-13.840966484558521,28.430981603452892-26.963143429671618,50.891192489847526-38.907214649816524,80.311191794449769l-23.236922221434725,57.235575932008032c-12.385331116372981,32.75192565420457-22.33270503672702,65.737389607012119-29.633832764395265,100.064363578611847-10.05806941951414,47.288835070639834-11.618968477523595,101.345668297970406-1.614530713978638,148.454372996922757,9.081298781457008,42.761784974654802,26.685643631556559,80.431366881239228,64.109347583925228,103.983291597674906,9.85592851473757,6.202845184607213,19.964316783426511,10.942313171728529,30.720612464170699,15.171735456813622,4.682398722966354,1.841359662057585,9.627195620269958.246890280332082,14.162816110591848-1.113798039486937l27.848259746369877-8.354699112685921c13.303694881458796-3.991271483700984,25.112537925086144-10.841323637196183,33.993128366864767-21.636522246606546l22.150351437405334-26.925363591049972,37.329572487185033-51.091236703705363c9.64295383638364-13.197827030684493,36.482698554468698-21.269112759611744,43.818446605411737-14.088416985847289,3.529992507616953,3.455331561395724,5.813094463498601,7.918524955888643,8.397475382652374,11.303985734297385,1.563046878269233,2.047434959173188,5.099092091621969,6.229453174688388,12.222518121146095,12.482618508773157,6.283477785274044,5.515888295474724,13.186598544341905,8.703866426563764,19.946986238257523,11.652602580386883,25.403915729345499,11.080643322764445,59.701025844278774,6.636527789405591,80.844672002031984-11.87927218222103,11.706776029200228-9.977539433348284,14.226980925750468-15.176586010660685,17.684675355249055-18.463955968103619l206.77912244577783.018261657716721c.562716732451008.485420555840392,9.928189891674265,13.458062762001646,20.200636268617018,20.826758469465858,22.177776593853196,16.996453766743798,61.897434179825723,24.335712141255499,96.835791353256354-1.683689314013463,8.491033628870355-6.227571356024782,14.916396780452487-13.60262642050111,21.395139259071584-24.926863102036805,3.311016089781333-3.567892281249442,9.226542787804647-2.407094345693622,14.557236909204221-1.842912426825933Z"/>
    </g>
    <g id="body-left">
      <path id="vector-2" data-name="vector" class="cls-1" d="M102.761528141011695,138.211061369249364s-7.204058373945372,25.157777542562144-2.817917172087618,34.56010492952646c12.35779515660397,26.490719403704134,51.63061518669474,20.810226275208151,51.63061518669474,20.810226275208151l104.784143044224038-15.435514031397361c16.604807115474614-2.446016408335709,32.409659826854295,7.931080873637256,36.766189111544008,24.139821361522991l35.266930682150814,131.21282789036286c4.243259529907846,15.787313259839721.351233793081519,32.817207845107987-10.815611914779765,44.756473665893282-.380466086396154.406783245700353-.77137833613051.812271691322167-1.173022307820247,1.216131492248678-16.065758671189542,16.154391839627351-78.741417412819828,85.630661055045493-85.613199920410807,94.414136044551924-6.871782507590979,8.78347498950825-106.94296470027075,154.414691190113444-106.94296470027075,154.414691190113444,0,0-11.929328133815034,16.494450148093165-18.104888795166517,15.613041945294754"/>
    </g>
    <g id="body-right">
      <path id="vector-3" data-name="vector" class="cls-1" d="M948.131167570945763,136.697237832548126s7.439316702810174,26.671601079263382,3.053175500956058,36.073928466227699c-12.357795156605789,26.490719403704134-51.630615186697469,20.810226275207242-51.630615186697469,20.810226275207242l-104.784143044224038-15.435514031397361c-16.604807115474614-2.446016408334799-32.409659826855204,7.931080873637256-36.766189111542189,24.1398213615239l-35.266930682151724,131.21282789036286c-4.243259529906936,15.787313259839721-.35123379308061,32.817207845106168,10.815611914777037,44.756473665891463.380466086398883.406783245700353.771378336132329.812271691323986,1.173022307822976,1.216131492250497,16.065758671189542,16.154391839627351,78.741417412818919,85.630661055043674,85.613199920408078,94.414136044551924,6.871782507594617,8.783474989506431,106.942964700272569,154.414691190113444,106.942964700272569,154.414691190113444,0,0,11.929328133817762,16.494450148093165,18.104888795165607,15.613041945292935"/>
    </g>
    <g id="bumper-bottom">
      <path id="vector-4" data-name="vector" class="cls-1" d="M269.485356193607004,109.330358795677967l.741312813078366,14.31762188412722c.410328792159817,14.589144757182112,10.140735225285425,24.112758595158084,34.047066795652427,22.244136921744939,54.374827229337825-4.250170309473106,173.630114661523294-7.501764904677657,223.614964235043772-7.31667929555806,90.691296304019488.335814831123571,219.385133014942767,9.413817224593004,219.385133014942767,9.413817224593004,12.325103556286194.074672026569715,30.369112711176058-4.996076763308338,34.172022560629557-18.401689496223298l2.346314594975411-20.332563576906068"/>
    </g>
    <g id="press-stick-left">
      <g id="vector-5" data-name="vector">
        <path id="_2" data-name="2" class="cls-1" d="M354.562915464784055,561.341745264229758c-32.490004340158521,0-58.922416662114301-24.547197631929521-58.922416662114301-54.719775017845677,0-30.172892639206111,26.43241232195578-54.720090271137451,58.922416662114301-54.720090271137451,32.49000434016034,0,58.92241666211612,24.54719763193134,58.92241666211612,54.720090271137451,0,30.172577385916156-26.43241232195578,54.719775017845677-58.92241666211612,54.719775017845677Z"/>
        <ellipse id="_1" data-name="1" class="cls-1" cx="354.56291546478451" cy="512.496952225541918" rx="39.553327223870383" ry="35.350786206332941"/>
      </g>
      <path id="vector-6" data-name="vector" class="cls-1" d="M317.831516692705009,464.00034666155625c0-12.098466686309621,16.059030718665781-25.754799301017556,36.426397440515757-25.754799301017556,20.367366721855433,0,37.036400103646884,12.46326127719658,37.036400103646884,25.849992012601433"/>
      <ellipse id="vector-7" data-name="vector" class="cls-1" cx="354.562915464784282" cy="494.846432180948796" rx="69.079710571569876" ry="66.580637682370252"/>
      <ellipse id="vector-8" data-name="vector" class="cls-1" cx="354.562915464784965" cy="485.594767709770622" rx="78.651552249037209" ry="75.806202141277481"/>
    </g>
    <g id="press-stick-right">
      <g id="vector-9" data-name="vector">
        <path id="_2-2" data-name="2" class="cls-1" d="M696.879691231821198,561.341745264229758c-32.49000434015943,0-58.922416662115211-24.547197631929521-58.922416662115211-54.719775017845677,0-30.172892639206111,26.43241232195578-54.720090271137451,58.922416662115211-54.720090271137451,32.490004340163068,0,58.922416662118849,24.54719763193134,58.922416662118849,54.720090271137451,0,30.172577385916156-26.43241232195578,54.719775017845677-58.922416662118849,54.719775017845677Z"/>
        <ellipse id="_1-2" data-name="1" class="cls-1" cx="696.879691231822108" cy="512.496952225541918" rx="39.553327223869019" ry="35.350786206332941"/>
      </g>
      <path id="vector-10" data-name="vector" class="cls-1" d="M660.148292459740333,464.00034666155625c0-12.098466686309621,16.059030718666691-25.754799301017556,36.426397440518485-25.754799301017556,20.367366721853614,0,37.036400103645065,12.46326127719658,37.036400103645065,25.849992012601433"/>
      <ellipse id="vector-11" data-name="vector" class="cls-1" cx="696.879691231820743" cy="494.846432180948796" rx="69.079710571568739" ry="66.580637682370252"/>
      <ellipse id="vector-12" data-name="vector" class="cls-1" cx="696.879691231822108" cy="485.594767709770622" rx="78.651552249036286" ry="75.806202141277481"/>
    </g>
    <g id="usb_port" data-name="USB port">
      <rect id="vector-13" data-name="vector" class="cls-1" x="495.336452215994996" y="114.744309639036601" width="61.11195439510584" height="9.153362810100603" rx="3.690598414308359" ry="3.690598414308359"/>
    </g>
    <g id="touch_pad" data-name="touch pad">
      <path id="vector-14" data-name="vector" class="cls-1" d="M696.174621297730482,153.680228773569979s-127.725107221744111-6.211447013491124-169.595551144115234-5.908776857759221c-43.564374124415735.314915120675323-174.588982509153539,5.515760986778332-174.588982509153539,5.515760986778332-32.436619336605872,3.775093563835981-51.76456756427342,25.780168102888638-44.007717199515355,58.577353852419947l30.418302832077643,128.613378015094895c6.165610913488308,26.069174585049041,28.942866972744923,44.427720411609698,55.121008684702247,44.427720411609698h263.722586014054286c26.181502095396354,0,48.960764662249858-18.363161805325944,55.123128243494648-44.436685348358878l30.396992077372488-128.61245171889459c7.750987192855973-32.795135241581193-13.65881692502262-58.176299340890182-46.589766998917185-58.176299340890182Z"/>
      <path id="vector-15" data-name="vector" class="cls-1" d="M695.845334160183484,167.84321186237139s-127.546629101165308-6.061941128151375-169.358564886009844-5.766556065489567c-43.503498954391034.307335298483849-174.345018623345823,5.382999855938579-174.345018623345823,5.382999855938579-32.391293660369229,3.684229276613223-49.521420433522508,25.532285388761011-41.775409191195649,57.540062119505819l28.204984145345406,117.058112844212701c6.156995327470213,25.441704847649817,28.902423330818237,43.358371247177274,55.043984720906337,43.358371247177274h263.354070281084205c26.144917077856007,0,48.892348784987917-17.92117127439451,55.046101317906505-43.36712040315615l27.893754120983431-115.852036779021546c7.740156263394965-32.005775577315944-11.178968246651493-58.35383281916711-44.063901885674568-58.35383281916711Z"/>
    </g>
    <g id="ps_button" data-name="PS button">
      <path id="vector-16" data-name="vector" class="cls-4" d="M558.252258000113216,467.329779473975577c-.180224634188562.710875871443932-1.461903517949395,2.012538972017865-2.222892715955822,2.232854267454968l-23.630389116575316,6.708646581495486-.350487716877979-4.776166704352363,14.168259695683446-3.94507996297034c2.533228657770451-.710936985256922.600748780629146-2.723475957272967-1.471926183263349-2.10268184601955l-12.676288181795826,3.724764667531417-.010022665312135-4.615926286975082c9.852707799022028-4.185379475222362,27.215019811168531-1.211581340385237,26.193746884096981,2.773589283835463ZM507.336690415181693,468.621419909235556l10.99419159603076-3.504510485903666-.230337960751967-4.716091826290722-18.053203666778245,4.976436669167015c-.841109406695068.230276846939887-2.302951810831473,1.862382333767528-2.262922263395012,2.713453291960832.150156638252156,3.774877994093913,12.656303964982726,5.276811059484317,20.386223473548853,4.395672105349149l.04002954743828-4.605903621662947c-4.55585140891435,1.06136358832191-6.698562802369452,3.314263186402968-10.903987608218813,1.311685765886068-.250322177564158-.120149756126921-.240299512251113-.480599024504045.030006882126145-.57074189850573ZM533.830811689593247,449.947361017389994l.08012020868955,10.563644784278949c3.41436761190198,1.752255242950923,7.189245605997712,1.702141916388427,9.842624019895084-1.181574458261821,1.872404999079663-2.022561637328181,2.172840503206316-6.147866234488902.911206950069754-8.731208218823667-.891161619443665-1.842398116952609-3.324285851715103-4.445724318100474-5.937634718173285-5.096586425293935l-18.543886470409234-4.615926286976901v33.232774738033186l9.942789559209814,2.523267106271305-.010022665313954-26.764488782602712-.010022665310316.010022665312135c0-2.383072019520114,3.714803116030453-2.112704511329866,3.724825781342588.06007487806346Z"/>
    </g>
    <g id="speaker" data-name="speaker">
      <circle id="vector-17" data-name="vector" class="cls-4" cx="528.541622234881288" cy="400.339292288255365" r="5.999779590885055"/>
      <circle id="vector-18" data-name="vector" class="cls-4" cx="567.727554157934264" cy="400.311846937461269" r="5.988197377180995"/>
      <circle id="vector-19" data-name="vector" class="cls-4" cx="508.831708032767665" cy="400.349640568249924" r="5.940422292888229"/>
      <circle id="vector-20" data-name="vector" class="cls-4" cx="489.388774096621091" cy="400.297934414763859" r="5.91828564598859"/>
      <circle id="vector-21" data-name="vector" class="cls-4" cx="538.257616949985731" cy="414.949342793341657" r="5.859401314825391"/>
      <circle id="vector-22" data-name="vector" class="cls-4" cx="548.143758184942271" cy="400.361400578069606" r="5.899097056142409"/>
      <circle id="vector-23" data-name="vector" class="cls-4" cx="557.700140986824408" cy="414.902047397245042" r="5.850884054858398"/>
      <circle id="vector-24" data-name="vector" class="cls-4" cx="518.495722364665198" cy="414.886223694526507" r="5.859840454563482"/>
      <path id="vector-25" data-name="vector" class="cls-4" d="M499.488932969186862,420.561851004937125c-3.494616552390653.293914620930082-6.165786924377244-1.907649786518959-6.517267863964662-5.079840148986477-.34621716962647-3.124683717136577,2.075630484250723-6.090700358257891,5.831032057837547-6.261880892941917,2.997445776437416-.136631026172836,5.774927013456363,2.278746491061611,6.14450293513346,5.101425486745939.389920767258445,2.97806511509043-2.156363224570669,5.962589025757552-5.458267129006344,6.240295555182456Z"/>
    </g>
    <g id="l2-tick">
      <path id="vector-26" data-name="vector" class="cls-1" d="M126.349348941083917,105.036718447402563s14.242741783435122-8.419429654444684,34.522318316987366-14.513810167118208c19.350716167477913-5.815241128050729,45.354927318192495-9.853768962992035,63.003608346035435-10.183148583185357,17.64868102784385-.329379620192412,23.84812398827944.727089012215401,29.025530067942782,3.189369205184448,5.177406079662433,2.462280192969956,12.943860481863339,7.59472438924422,15.400346657057526,14.311290623681089"/>
    </g>
    <g id="r2-tick">
      <path id="vector-27" data-name="vector" class="cls-1" d="M926.164413616570528,105.145521711160654s-12.206986125378535-9.139763956662136-32.486562658930779-15.234144469335661c-19.350716167477003-5.81524112804982-42.797483578739048-8.974161836466919-60.446164606581078-9.303541456658422-17.64868102784385-.329379620193322-30.205288455430491,1.834892086661057-35.382694535092014,4.297172279630104-5.177406079665161,2.462280192969047-9.147814285917775,5.540702801929001-11.604300461112871,12.257269036365869"/>
    </g>
    <g id="l1-tick">
      <path id="vector-28" data-name="vector" class="cls-1" d="M110.923020283389633,154.027755454786529l6.198034401938457-27.65175752214509c1.081598968698927-4.556460369999513,3.888832916361025-8.544622444314882,7.87415488780789-11.16877032919092,10.422373887181493-6.862645123123002,41.694041046129314-19.818050930260142,71.174645341296127-22.996616799875483,16.112419288579986-1.737223074359463,53.622345344759196-1.464477693665685,61.510444396724779,2.567790890251672,7.888099051962854,4.032268583919176,9.032206347912506,9.599974127733731,10.748367291834256,21.537628493638294,1.716160943923569,11.937654365906383,3.146295063859725,22.883210077601689,0,30.882000074279858-3.146295063857906,7.998789996679079-6.993921332954415,18.611768568735897-18.305716735178976,23.275825705729403-11.311795402225471,4.664057136995325-88.663107062285235,11.63635602987506-101.825549339439931,13.05492142409912-9.156896410270747.986872807689906-22.445671944485184-1.699607277698306-32.361578348512012-9.375845127244247-6.060567209175133-4.691689645429506-7.024217699291512-12.856369187727068-5.012801896470592-20.125176809542609Z"/>
      <path id="vector-29" data-name="vector" class="cls-1" d="M112.81109856520834,144.881610806708522s1.855402018488348,9.108306711847035,10.304515860191714,11.105394572844489c9.021175468468755,2.132304092183404,32.124978978756189.991372052651968,37.575504489440391.611239172210844,7.78622582954813-.543030290666138,41.94306293052523-4.470849026176438,55.966669600499699-7.185800906879194,14.023606669975379-2.714951880700028,32.627081917231408-4.240534337671306,39.856677691546793-13.612150325156108,3.398102160454982-4.404908590761806,5.412620118236191-16.375719719961126,5.412620118236191-16.375719719961126l1.924937299811063-19.379206832445561"/>
    </g>
    <g id="r1-tick">
      <path id="vector-30" data-name="vector" class="cls-1" d="M942.280085838048763,153.501054010867847l-6.641029946520575-28.295280205409654c-1.069421809837877-4.556460369999513-3.845050574134802-8.544622444313973-7.785503883396814-11.16877032919092-10.305033813658156-6.862645123123002-29.693363162705282-16.909126896374801-61.94433873574053-21.541066262231652-40.410899145595977-5.803881316342085-63.574173727769448-1.67595859859739-71.37346478525069,2.356309985321786-7.799291057475784,4.032268583917357-8.930517445902296,9.599974127731912-10.627357028537517,21.537628493637385-1.69683958263704,11.937654365905473-3.110872568167906,22.883210077602598,0,30.882000074279858s7.729073722179237,17.843462243898102,18.913515517773703,22.507519380893427c11.184441795599923,4.664057136993506,86.851002064546265,12.404662354710126,99.865255266808163,13.823227748935096,9.053803687858817.986872807688997,24.832289837508142-2.300154227146777,34.636558221343876-9.976392076692719,5.992334442858919-4.691689645429506,6.945135694539204-12.856369187727978,4.956365373520384-20.125176809542609Z"/>
      <path id="vector-31" data-name="vector" class="cls-1" d="M940.594727347932348,145.381735232423125s-1.855402018487439,9.108306711847945-10.304515860192623,11.105394572843579c-9.021175468467845,2.132304092184313-32.12497897875437.991372052652878-37.575504489435843.611239172211754-7.786225829549949-.543030290665229-41.943062930527958-4.470849026176438-55.966669600502428-7.185800906879194-14.023606669972651-2.714951880700028-32.627081917231408-4.240534337671306-39.856677691544974-13.612150325155199-3.398102160455892-4.404908590763625-5.412620118235282-16.375719719962035-5.412620118235282-16.375719719962035l-2.966289819429221-20.516850222676112"/>
    </g>
    <g id="options">
      <g id="vector-32" data-name="vector">
        <rect class="cls-1" x="777.251677137339584" y="213.643751377837646" width="26.432218472337013" height="50.347552964543524" rx="12.394944429107657" ry="12.394944429107657" transform="translate(89.02205076294706 -196.896842916443063) rotate(15.036442370322531)"/>
        <rect class="cls-1" x="776.681157392040177" y="217.966655456872701" width="26.432218472332806" height="45.949353951775237" rx="12.394944429106902" ry="12.394944429106902" transform="translate(89.553502499417505 -196.676114142561886) rotate(15.036442370321083)"/>
      </g>
      <g id="vector-33" data-name="vector">
        <rect class="cls-4" x="790.196164777237641" y="205.868872229111275" width="14.009625188501559" height="2.18695790526138" rx="1.090173506955273" ry="1.090173506955273" transform="translate(30.350608547518505 -93.542765186136876) rotate(6.845336521593967)"/>
        <rect class="cls-4" x="790.818388141464197" y="200.685637503758613" width="14.009625217108805" height="2.18695791522623" rx="1.090173375421801" ry="1.090173375421801" transform="translate(29.737256034652432 -93.653875984698317) rotate(6.845336489574311)"/>
        <rect class="cls-4" x="791.269561164265383" y="195.777048548649475" width="14.009625205963175" height="2.186957907134456" rx="1.090173369913357" ry="1.090173369913357" transform="translate(29.155419485344737 -93.742642496674705) rotate(6.84533652871209)"/>
      </g>
    </g>
    <g id="create">
      <g id="vector-34" data-name="vector">
        <rect class="cls-1" x="247.822957834722018" y="213.45978629242083" width="26.432218472337837" height="50.347552964543269" rx="12.39494442910811" ry="12.39494442910811" transform="translate(575.049927500898548 401.374311672411636) rotate(164.963557629648562)"/>
        <rect class="cls-1" x="248.393477580026371" y="217.782690371455828" width="26.432218472334824" height="45.949353951774981" rx="12.39494442910666" ry="12.39494442910666" transform="translate(576.722418727958825 405.40119204390129) rotate(164.963557629658141)"/>
      </g>
      <g id="vector-35" data-name="vector">
        <rect class="cls-4" x="242.069979463004444" y="203.846503635350444" width="9.615119898204455" height="2.186957883525963" rx="1.090173640794587" ry="1.090173640794587" transform="translate(192.832668755174154 521.212124696142382) rotate(-119.999925869430115)"/>
        <rect class="cls-4" x="246.90020900584048" y="200.551139828947214" width="14.0096252565356" height="2.186957870696176" rx="1.090173220034033" ry="1.090173220034033" transform="translate(88.696363018168881 480.632810998190735) rotate(-97.822890488936864)"/>
        <rect class="cls-4" x="256.704511579505152" y="202.160352140116231" width="9.615119790393692" height="2.186957905425629" rx="1.090175068868831" ry="1.090175068868831" transform="translate(-4.623495162152267 400.415043180253633) rotate(-74.387417091061934)"/>
      </g>
    </g>
    <g id="face">
      <g id="triangle">
        <ellipse class="cls-1" cx="876.456953769733445" cy="280.411383645042406" rx="32.837030826089176" ry="29.738258104970555"/>
        <path class="cls-1" d="M876.260847716504941,310.259622846181628c-19.830419553387401,0-35.906150877002801-14.558692893390798-35.906150877002801-32.517750706250808s16.0757313236154-32.517750706251718,35.906150877002801-32.517750706251718c19.830419553383763,0,35.906150876999163,14.558692893391708,35.906150876999163,32.517750706251718s-16.0757313236154,32.517750706250808-35.906150876999163,32.517750706250808"/>
        <polygon class="cls-2" points="876.513216201001342 262.378829083957498 857.967266962154099 291.01185633500063 895.059165439843127 291.01185633500063 876.513216201001342 262.378829083957498"/>
      </g>
      <g id="square">
        <ellipse class="cls-1" cx="792.772641525214567" cy="351.201290051810702" rx="32.837030826089176" ry="29.738258104970097"/>
        <ellipse class="cls-1" cx="792.576535471985153" cy="348.531778546700025" rx="35.906150877001892" ry="32.517750706250354"/>
        <rect class="cls-2" x="775.459591808188634" y="339.319654587474361" width="34.340944429384763" height="26.227580678994855"/>
      </g>
      <g id="cross">
        <ellipse class="cls-1" cx="869.611235666712673" cy="416.257833833013592" rx="32.837030826089176" ry="29.73825810497101"/>
        <path class="cls-1" d="M869.41512961348235,446.106073034154178c-19.830419553383763,0-35.906150876999163-14.558692893389889-35.906150876999163-32.517750706248989,0-17.95905781286092,16.0757313236154-32.517750706254446,35.906150876999163-32.517750706254446,19.830419553387401,0,35.906150877002801,14.558692893393527,35.906150877002801,32.517750706254446,0,17.959057812859101-16.0757313236154,32.517750706248989-35.906150877002801,32.517750706248989"/>
        <line class="cls-2" x1="853.572740970363157" y1="406.523706321768259" x2="885.786038378591911" y2="431.870688312576021"/>
        <line class="cls-2" x1="885.786038378591911" y1="406.523706321768259" x2="852.470248316169091" y2="432.591752570242534"/>
      </g>
      <g id="circle">
        <ellipse class="cls-1" cx="951.055710920595175" cy="348.845490201224493" rx="32.83703082609145" ry="29.738258104968736"/>
        <path class="cls-1" d="M950.859604867368034,378.693729402364625c-19.83041955338922,0-35.90615087700462-14.558692893391708-35.90615087700462-32.517750706252627,0-17.959057812859101,16.0757313236154-32.517750706250808,35.90615087700462-32.517750706250808,19.830419553380125,0,35.906150876997344,14.558692893391708,35.906150876997344,32.517750706250808,0,17.95905781286092-16.075731323617219,32.517750706252627-35.906150876997344,32.517750706252627"/>
        <ellipse class="cls-2" cx="951.392749870725766" cy="349.408770964359064" rx="18.841947345832978" ry="16.584104261573884"/>
      </g>
    </g>
    <g id="directional_buttons" data-name="directional buttons">
      <g id="up">
        <path class="cls-1" d="M158.536616849925849,266.614380712686398c-6.035200205342335,1.617939679556002-11.492599488239648,7.821373625366505-10.776530738226938,14.028515952596535l2.96345689093323,25.688313730003756c.160418366458543,4.619360665430577,2.08550423818906,9.001483759911935,5.379041259081532,12.244451675513119l17.082218942558939,16.526237958443744c5.012204870658024,4.300490686337071,12.412515549146519,4.300476666125178,17.424704124836353-.000033011861888l14.690415361340456-15.504912826443615c3.661546394681864-3.696089428667619,5.803676853907746-8.631059552249098,6.003177756032528-13.829924664480131l2.167835324310545-26.145295900854762c.446399592644411-5.383826579814922-6.221017823910188-12.503347802297867-11.551020763552515-13.384216635459779-13.517095521668125-2.233917747277701-30.693819813764094-3.024980429489915-43.38329815731413.376863722543021Z"/>
        <path class="cls-1" d="M158.534564631258036,272.949380662966178c-6.035200205344154,1.617939679555093-10.194496582234933,8.506502455010377-9.478427832221314,14.713644782240408l1.665353984927606,18.964697679281016c.160418366458543,4.619360665431486,2.08550423818815,9.001483759912844,5.379041259080623,12.244451675514938l17.082218942558939,16.526237958440106c5.012204870658024,4.30049068633889,12.412515549147429,4.300476666128816,17.424704124837262-.00003301185825l14.690415361340456-15.504912826445434c3.661546394681864-3.6960894286658,5.803676853906836-8.631059552248189,6.003177756031619-13.829924664478312l1.545855173128984-18.890273089480615c.446399592644411-5.383826579814922-4.436284516647902-13.152401535890931-10.929040612370045-14.600752225756878-13.371789437602274-2.982868934419457-30.693819813764094-3.024980429489915-43.38329815731413.376863722543021Z"/>
        <polygon class="cls-4" points="181.007565035830339 283.75397670201346 172.971391145743837 292.499001669635618 189.043738925912294 292.499001669635618 181.007565035830339 283.75397670201346"/>
      </g>
      <g id="left">
        <path class="cls-1" d="M94.027324299863722,373.455326774514106c1.617939679555093,6.035200205344154,7.821373625368324,11.492599488241467,14.028515952596535,10.776530738226938l25.688313730003756-2.96345689093323c4.619360665432396-.160418366460362,9.001483759912844-2.085504238186331,12.244451675514028-5.379041259080623l16.526237958441925-17.082218942559848c4.300490686336161-5.012204870658024,4.300476666125178-12.41251554914561-.00003301185825-17.424704124836353l-15.504912826447253-14.690415361339547c-3.6960894286658-3.661546394680954-8.631059552248189-5.803676853907746-13.829924664478312-6.003177756032528l-26.145295900855672-2.167835324312364c-5.383826579815832-.446399592643502-12.503347802296958,6.221017823912007-13.38421663545887,11.551020763555243-2.23391774727861,13.517095521667216-3.024980429490824,30.693819813763184.376863722542112,43.383298157312311Z"/>
        <polygon class="cls-4" points="111.166920289190784 355.273706786492767 119.911945256813851 363.309880676575631 119.911945256813851 347.237532896408084 111.166920289190784 355.273706786492767"/>
        <path class="cls-1" d="M94.476658752336334,374.025987784565586c1.617939669105908,5.502460469564539,7.82137360546767,10.478123703509482,14.028515933936433,9.825263827573508l25.688313735134216-2.701866403358508c4.619360665711611-.146257910049826,9.001483763525357-1.901412436902319,12.244451684829073-4.904222068569652l16.286315341310001-17.438022720043591c3.225358630714254-4.110706869683781,4.745933737986888-9.753263073880589-.000032937555261-14.049827801971333l-15.504912801012324-13.393661674188479c-3.696089422326622-3.338334037040113-8.631059542197363-5.291374155996891-13.829924654083698-5.473264687622759l-26.145295897102187-1.976475925163868c-5.383826579041852-.406994958505493-12.503347813068103,5.67187560311686-13.384216655458658,10.531388047495057-2.233917770683547,12.323913259191613-2.785057880058048,28.011337836871462.616786250002406,39.580689405849625Z"/>
      </g>
      <g id="right">
        <path class="cls-1" d="M268.109253788908063,373.455326774514106c-1.617939679555093,6.035200205344154-7.821373625367414,11.492599488241467-14.028515952596535,10.776530738226938l-25.688313730003756-2.96345689093323c-4.619360665431486-.160418366460362-9.001483759912844-2.085504238186331-12.244451675514028-5.379041259080623l-16.526237958441925-17.082218942559848c-4.300490686335252-5.012204870658024-4.300476666125178-12.41251554914561.00003301185825-17.424704124836353l15.504912826447253-14.690415361339547c3.69608942866671-3.661546394680954,8.631059552248189-5.803676853907746,13.829924664478312-6.003177756032528l26.145295900855672-2.167835324312364c5.383826579815832-.446399592643502,12.503347802296958,6.221017823912007,13.38421663545887,11.551020763555243,2.23391774727861,13.517095521667216,3.024980429490824,30.693819813763184-.376863722542112,43.383298157312311Z"/>
        <polygon class="cls-4" points="250.96965779958191 350.984378588611435 242.224632831957933 359.020552478696118 242.224632831957933 342.948204698528571 250.96965779958191 350.984378588611435"/>
        <path class="cls-1" d="M267.86933116756154,374.025987784565586c-1.617939669105908,5.502460469564539-7.82137360546767,10.478123703509482-14.028515933936433,9.825263827573508l-25.688313735135125-2.701866403358508c-4.619360665710701-.146257910049826-9.001483763524448-1.901412436902319-12.244451684828164-4.904222068569652l-16.286315341310001-17.438022720043591c-3.225358630714254-4.110706869683781-4.745933737986888-9.753263073880589.000032937554352-14.049827801971333l15.504912801013234-13.393661674188479c3.696089422325713-3.338334037040113,8.631059542197363-5.291374155996891,13.829924654083698-5.473264687622759l26.145295897101278-1.976475925163868c5.383826579042761-.406994958505493,12.503347813069013,5.67187560311686,13.384216655460477,10.531388047495057,2.233917770681728,12.323913259191613,2.785057880057138,28.011337836871462-.616786250003315,39.580689405849625Z"/>
      </g>
      <g id="down">
        <path class="cls-1" d="M205.65612265924301,430.805702653515254c6.03519967660668-1.617941651828005,11.492596932253036-7.821377381089405,10.776526153777013-14.028519474311906l-2.963465285743041-25.688312761558336c-.160419876043306-4.619360613007302-2.085507179825072-9.001483078380261-5.379045260504427-12.244449917670863l-17.082224343246708-16.526232376059852c-5.012206276038341-4.300489048371674-12.412516954521379-4.300472609776989-17.424704124829077.000038706166379l-14.690410294409048,15.504917627196846c-3.661545186820149,3.696090625240686-5.803674033320931,8.631061448861146-6.003173236486873,13.829926626285669l-2.167826780162613,26.145296609291108c-.446397833236006,5.383826725697872,6.221021909944284,12.503345769300722,11.55102513744896,13.384212860646585,13.517096251698604,2.23391332995925,30.693820802311166,3.02497039890477,43.383298034155814-.376877899985629Z"/>
        <path class="cls-1" d="M205.576233346732806,430.526035973342005c6.035199676610318-1.617941651829824,11.102507344210608-8.192183326971644,10.386436565730946-14.399325420190507l-1.665360182491895-18.96469713505212c-.160419876041487-4.619360613007302-2.993520721679488-9.315805537929919-6.28705880236248-12.558772377220521l-17.082224343245798-16.526232376059852c-5.012206276036522-4.300489048371674-12.412516954517741-4.300472609776989-17.424704124826349.00003870616456l-14.690410294412686,15.504917627198665c-3.66154518681742,3.696090625238867-6.213930709845044,8.537269320608175-6.413429913006439,13.736134498030879l-1.545848999883674,18.890273594657629c-.446397833236006,5.383826725697872,4.846545491305733,13.246192214390248,11.339302060347109,14.694540782455078,13.371790412386872,2.982864564582997,30.693820802310256,3.02497039890477,43.383298034151267-.37687789998381Z"/>
        <polygon class="cls-4" points="183.185168872206305 413.6661140075812 191.221339904459455 404.921086413778539 175.148992124294637 404.921091666137727 183.185168872206305 413.6661140075812"/>
      </g>
    </g>
    <g id="mute">
      <rect id="vector-36" data-name="vector" class="cls-1" x="501.338786610227089" y="497.207386632810994" width="53.60352874881346" height="9.153362810102408" rx="3.690598414305538" ry="3.690598414305538"/>
      <path id="vector-37" data-name="vector" class="cls-1" d="M554.942315365900868,503.995493779268145l-.228169681282452-.061724141025479c.000000047173671-2.040887983604989-1.426296861791343-3.633637867062134-3.467184845394513-3.633637866878416l-46.212819753184704.00000000414002c-2.040887912941798.000000000183718-3.485863820263148,1.541812940331511-3.485863828088441,3.58270085327058l-.209490640863805.112660997872808"/>
    </g>
    <g id="press">
      <g id="press-l1-tick">
        <path id="vector-38" data-name="vector" class="cls-6" d="M110.721685407356745,154.827709289013001l6.198034401938457-27.65175752214418c1.081598968698927-4.556460370001332,3.888832916361025-8.544622444315792,7.874154887806981-11.16877032919183,10.422373887182403-6.862645123123002,41.694041046129314-19.818050930260142,71.174645341295218-22.996616799876392,16.112419288581805-1.737223074359463,53.622345344760106-1.464477693665685,61.510444396725688,2.567790890252581,7.888099051963763,4.032268583918267,9.032206347912506,9.599974127733731,10.748367291835166,21.537628493638294,1.716160943923569,11.937654365906383,3.146295063858815,22.883210077601689,0,30.882000074280768-3.146295063857906,7.99878999667726-6.993921332955324,18.611768568734988-18.305716735180795,23.275825705728494-11.311795402224561,4.664057136994415-88.663107062283416,11.63635602987415-101.825549339439021,13.054921424098211-9.156896410269837.986872807690816-22.445671944484275-1.699607277698306-32.361578348512012-9.375845127243338-6.060567209175133-4.691689645430415-7.024217699291512-12.856369187727068-5.012801896469682-20.125176809542609Z"/>
      </g>
      <g id="press-r1-tick">
        <path id="vector-39" data-name="vector" class="cls-6" d="M942.280085838048763,154.425650326129471l-6.641029946520575-28.295280205407835c-1.069421809837877-4.556460369999513-3.845050574134802-8.544622444314882-7.785503883396814-11.16877032919183-10.305033813658156-6.862645123122093-29.693363162705282-16.909126896374801-61.94433873574053-21.541066262231652-40.410899145595977-5.803881316342085-63.574173727769448-1.67595859859739-71.37346478525069,2.356309985320877-7.799291057475784,4.032268583919176-8.930517445902296,9.599974127732821-10.627357028537517,21.537628493639204-1.69683958263704,11.937654365905473-3.110872568167906,22.883210077600779,0,30.882000074279858s7.729073722179237,17.843462243898102,18.913515517773703,22.507519380892518c11.184441795599923,4.664057136994415,86.851002064546265,12.404662354710126,99.865255266808163,13.823227748935096,9.053803687858817.986872807688997,24.832289837508142-2.300154227146777,34.636558221343876-9.976392076692719,5.992334442858919-4.691689645429506,6.945135694539204-12.856369187727068,4.956365373520384-20.125176809543518Z"/>
      </g>
      <g id="press-directional_buttons" data-name="press directional buttons">
        <path id="press-right" class="cls-6" d="M268.488814225838723,334.43790859785986c-.881138954131529-4.856225799228923-8.000287016754555-10.934055604155219-13.387225167050019-10.52355412302677l-26.143633557534486,1.972570538391665c-5.196690850794766.180224634188562-10.133097972524411,2.132749841955047-13.827855757930593,5.477019910484159l-15.509952343694749,13.387225167050929c-4.746098708415047,4.295567679848318-3.224120312401283,9.942789559208904,0,14.048109939556525l16.53128638457838,17.081982952457111c2.212870050643687,2.242876932770741,4.956391338542744,3.864959754282609,7.940212138692914,4.706069160976767.020045330624271.009961551500965.04009066125036.019984216814919.070097543375596.019984216814919,1.291701549073878.320419720939753,2.633394197084272.500644355128316,3.995132175720755.540735016378676l25.683079863655621,2.703430626648696c6.208002226365352.650862107193461,12.416004452730704-4.325513448162383,14.028064608932254-9.832601354582948,3.404344946590754-11.564933494537399,2.853648378711114-27.255110472420711.620794111254327-39.580972051149729Z"/>
        <path id="press-left" class="cls-6" d="M93.691106444520301,334.43790859785986c.881138954132439-4.856225799228923,8.000287016755465-10.934055604155219,13.387225167050929-10.52355412302677l26.143633557534486,1.972570538391665c5.196690850793857.180224634188562,10.133097972524411,2.132749841955047,13.827855757930593,5.477019910484159l15.50995234369384,13.387225167050929c4.746098708415957,4.295567679848318,3.224120312402192,9.942789559208904,0,14.048109939556525l-16.53128638457747,17.081982952457111c-2.212870050643687,2.242876932770741-4.956391338542744,3.864959754282609-7.940212138692914,4.706069160976767-.02004533062518.009961551500965-.04009066125036.019984216814919-.070097543375596.019984216814919-1.291701549073878.320419720939753-2.633394197084272.500644355128316-3.995132175720755.540735016378676l-25.683079863655621,2.703430626648696c-6.208002226366261.650862107193461-12.416004452731613-4.325513448162383-14.028064608932254-9.832601354582948-3.404344946591664-11.564933494537399-2.853648378711114-27.255110472420711-.620794111255236-39.580972051149729Z"/>
        <path id="press-down" class="cls-6" d="M216.127629059650644,416.131848602111859l-1.251610887822608-14.278386786496412-.891161619445484-7.729980622378207c-.951175383695045-3.574546915466271-3.234142977715237-6.978952975870925-5.807462296736048-9.512242747454366l-17.08198295245802-16.53122527076448c-5.016466216604385-4.295567679850137-12.415943338917714-4.295567679850137-17.422386890209964,0l-14.688949381437851,15.50995234369293c-3.204074981776103,3.234142977715237-5.557140119171891,7.329440692750723-6.238009108490587,11.795149227662478v.010022665313954l-1.722187247013608,20.816770285300663v.04009066125036c-.420585260254484,5.386938150295464,4.866248464541059,13.207000532862367,11.334534419969714,14.658881385499626,2.403117350146204.540673902567505,4.946368673230609.981243379634179,7.55977865350269,1.311685765886068.030006882125235.009961551499146.070036429563515.0199842168131.110127090812966.0199842168131,4.676001165040361.520689685754405,9.592362956143916.841109406694159,14.448588755372839.861154737320248,7.529710657564465-.050113326564315,14.969278441127244-.881138954133348,21.267362427680382-2.57331931902263,6.037800257488925-1.622082821513686,11.104318686844636-8.190534316256162,10.383359036275579-14.398536542623333Z"/>
        <path id="press-up" class="cls-6" d="M214.125051639131016,287.343575451437573l-1.251610887823517,14.278386786496412-.891161619444574,7.729980622378207c-.951175383695045,3.574546915466271-3.234142977715237,6.978952975870925-5.807462296736048,9.512242747455275l-17.08198295245802,16.53122527076539c-5.016466216605295,4.295567679848318-12.415943338918623,4.295567679848318-17.422386890209964,0l-14.688949381437851-15.509952343694749c-3.204074981777012-3.234142977714328-5.557140119171891-7.329440692749813-6.238009108490587-11.795149227662478v-.010022665312135l-1.722187247013608-20.816770285301573v-.04009066125036c-.420585260254484-5.386938150296373,4.866248464541059-13.207000532863276,11.334534419969714-14.658881385499626,2.403117350146204-.540673902567505,4.946368673230609-.98124337963327,7.55977865350178-1.311685765886068.030006882126145-.009961551500055.070036429563515-.0199842168131.110127090813876-.0199842168131,4.676001165040361-.520689685754405,9.592362956143916-.841109406695068,14.448588755372839-.861154737319339,7.529710657564465.050113326562496,14.969278441127244.881138954132439,21.267362427680382,2.573319319021721,6.037800257488925,1.622082821513686,11.104318686844636,8.190534316257072,10.383359036275579,14.398536542622423Z"/>
      </g>
      <g id="press-face">
        <ellipse id="press-triangle" class="cls-6" cx="876.456953769733445" cy="280.460419417357343" rx="32.837030826089176" ry="29.738258104970328"/>
        <ellipse id="press-square" class="cls-6" cx="792.312880216411486" cy="351.201290051810702" rx="32.837030826088721" ry="29.738258104970097"/>
        <ellipse id="press-circle" class="cls-6" cx="952.568595064087276" cy="349.408770964358837" rx="32.837030826089176" ry="29.738258104969873"/>
        <ellipse id="press-cross" class="cls-6" cx="870.129432057639406" cy="416.155748678944292" rx="32.837030826088721" ry="29.738258104969646"/>
      </g>
      <g id="press-create">
        <rect id="vector-40" data-name="vector" class="cls-6" x="248.295962241331694" y="217.808886015609573" width="26.432218472334938" height="45.949353951775493" rx="12.394944429109916" ry="12.394944429109916" transform="translate(576.537522900934619 405.477985152035899) rotate(164.96355762970407)"/>
      </g>
      <g id="press-options">
        <rect id="vector-41" data-name="vector" class="cls-6" x="776.681157361052669" y="217.966655456579758" width="26.432218472336785" height="45.949353951774697" rx="12.394944429105967" ry="12.394944429105967" transform="translate(89.55350249824312 -196.676114134473551) rotate(15.036442370316204)"/>
      </g>
      <g id="press-mute">
        <rect id="vector-42" data-name="vector" class="cls-6" x="502.152992042663755" y="500.300131774190618" width="52.093490013181963" height="5.779690071260575" rx="2.881109197989152" ry="2.881109197989152"/>
      </g>
      <g id="press-ps_button" data-name="press PS button">
        <path id="vector-43" data-name="vector" class="cls-5" d="M533.829590413211918,449.945252730924039l.005693245115253.01014392235993c0-2.178063719240527-3.726549207403878-2.451495044973854-3.726549207403878-.067851757430617l.006490536474303-.007923858896902.013330665633475,26.763945110626082-9.947220166965053-2.525065125844776-.002401882054983-33.229631311085541,18.550746088827509,4.617114707636574c2.610607037795489.649756731743764,5.039693544884358,3.247180845180992,5.936702090328254,5.089265535189043,1.261826722005935,2.59127039298437.957713744272041,6.711001694950028-.908514267788632,8.732985001219276-2.661519110388326,2.883649358887851-6.434843680706763,2.937991657139719-9.850775295279163,1.187626434220874l-.077501806887085-10.570608657993944ZM532.397453151734226,476.273338533301285l23.632783210325215-6.710981208434532c.759555159336742-.215690228089443,2.037366601231042-1.517825990224082,2.221679826981926-2.234277452918832,1.024225799063061-3.981309908143885-16.343346893796479-6.956047803132606-26.189256763293088-2.771252702834317l.004950548629495,4.619756690284703,12.679748511560319-3.726423321413677c2.068262193888586-.624304273513189,4.00193804049195,1.38688848680431,1.46984632814565,2.101298941426649l-14.171784317251877,3.940993123871522.352032654902359,4.780885930018485ZM507.304948172405602,469.196750852310288c-.253095925829257-.12013827537703-.235272664485819-.488790911022079.031647672781219-.573904285043682l10.990811484292863-3.504660073091145-.227514124281697-4.71778662442739-18.052750667337932,4.97612768244835c-.841153500170549.231858695358824-2.302073183131142,1.86206125096578-2.266946095955063,2.717401354357207.154961999811349,3.773304978714805,12.656137198064243,5.269520739933796,20.386790660812949,4.395721883978695l.041438786710387-4.605578360158688c-4.551043432541519,1.058381908442243-6.6997449794153,3.308084707481612-10.903477717022724,1.312678421936653Z"/>
      </g>
      <g id="press-touch_pad" data-name="press-touch pad">
        <path id="vector-44" data-name="vector" class="cls-6" d="M695.124233971955618,167.84321186237139s-127.546629101165308-6.061941128151375-169.358564886011663-5.766556065489567c-43.503498954390125.307335298483849-174.345018623344913,5.382999855938579-174.345018623344913,5.382999855938579-32.391293660370138,3.684229276613223-49.521420433522508,25.532285388761011-41.775409191196559,57.540062119505819l28.204984145345406,117.058112844212701c6.156995327470213,25.441704847649817,28.902423330820056,43.358371247177274,55.043984720906337,43.358371247177274h263.354070281086024c26.144917077854188,0,48.892348784986098-17.92117127439451,55.046101317904686-43.36712040315615l28.111380123018535-116.755916030681874c7.740156263393146-32.005775577315944-11.396594248686597-57.449953567506782-44.281527887707853-57.449953567506782Z"/>
      </g>
      <g id="press-l2-tick">
        <path id="vector-45" data-name="vector" class="cls-6" d="M262.858021166761318,88.727197287164017c-1.592014825576371-2.242876932768922-9.598159131771354-5.434704513266297-12.161516899293929-6.746390279151456-7.890098812129509-4.035222836972025-36.399194537497351-2.385307796976122-52.703943704619633.340758256710615-31.04617025778407,5.190752091261857-51.45449676334556,11.358608557030493-68.720764538433286,21.044429441821194-2.080537714537968,1.167114741273508-1.340393809254238.933373497446155-2.922447083330553,2.835785378648325,3.144061217527451-6.047761808987161,2.227149976164583-3.667371257607556,3.528874190549686-6.270697458754512,8.100391442257205-16.100739572823841,14.076756869113524-29.079584475496631,24.960760260518327-43.307919049242628,20.59651610367473-26.894600090228778,54.940706642780242-41.333166180288572,85.36988521485091-25.262494603402956,14.989323771752424,7.910205256567679,23.800652199264732,21.828081660873067,25.432757686091463,38.900041948018952l1.388066418578092,22.036002010829179c.010022665313045,0,.086893439367486,1.589618420927764.217108611735966,2.968752075787961l-.080314648247622-1.312321313857865s-1.014247652621634-.589974789804728-4.308465508399422-5.225946407406809Z"/>
      </g>
      <g id="press-r2-tick">
        <path id="vector-46" data-name="vector" class="cls-6" d="M924.320868791282919,102.563835542049674c-1.321708431198203-1.622082821513686-30.442959045800308-15.156047974798639-62.694490404199314-19.781996927086766-40.411997678716943-5.807462296736958-58.769188661002772-.817485306650269-66.569205712945404,3.217737530322665-2.683446409835597,1.391744860761719-4.789292960396779,4.76099410560073-6.211105817095813,6.533294679178653-1.632105486827641,2.032584302642135-2.640313271665946,2.898827859588891-2.600222610415585,2.438213051897037l.640778328066517-6.978952975871834.832480398912594-18.828456231894961c1.061363588320091-11.54488816391131,7.02906630243524-21.037085580741405,15.499929678378976-28.396533155616453,27.265133137734665-23.179858088009496,62.720739477908865-18.974433282161044,85.429960092913461,7.559717539688791,13.957967065556659,16.290986872326357,33.188699601365443,49.530907328405192,35.671876046384568,54.236976489382869Z"/>
      </g>
      <g id="press-stick-left-2" data-name="press-stick-left">
        <path id="vector-47" data-name="vector" class="cls-6" d="M413.483750842222435,506.621843176644688c0,30.168833729192556-26.434046396349913,54.720391347338591-58.925877267000942,54.720391347338591-32.481747091524994,0-58.915793487875817-24.551557618146035-58.915793487875817-54.720391347338591,0-17.282252917271762,8.671133340762026-32.722107717592735,22.188530929251101-42.755040150801506,10.07296198064796-7.479658444814049,22.849415701756698-11.965412310351894,36.727262558624716-11.965412310351894,13.877907970680099,0,26.664323243288891,4.485753865537845,36.737285223936851,11.965412310351894,13.517397588489075,10.032932433208771,22.188592043064091,25.472787233529743,22.188592043064091,42.755040150801506Z"/>
      </g>
      <g id="press-stick-right-2" data-name="press-stick-right">
        <path id="vector-48" data-name="vector" class="cls-6" d="M637.958855854383728,506.621843173998059c-.000000001355147,30.168833729196194,26.434046393893368,54.720391348530029,58.925877264544397,54.720391349988859,32.481747091524085.000000001455192,58.915793488977215-24.551557615503043,58.915793490330543-54.720391344697418.000000000776708-17.282252917271762-8.671133339292282-32.72210771798018-22.188530927331158-42.755040151794674-10.072961980313266-7.479658445268797-22.849415701219186-11.965412311377804-36.727262558086295-11.965412311999899-13.877907970681918-.000000000625732-26.664323243490799,4.485753864337312-36.737285224473453,11.965412308700252-13.517397588941094,10.032932432603047-22.188592044209145,25.472787232532937-22.188592044984034,42.75504014980288Z"/>
      </g>
    </g>
  </g>
</svg>

